<svg width="180" height="180" viewBox="0 0 180 180" fill="none" xmlns="http://www.w3.org/2000/svg">
<path d="M135.335 101.205L82.1555 178.772C81.2891 180.042 79.5628 180.381 78.2809 179.532C77.6489 179.115 77.2119 178.46 77.0689 177.717C76.9259 176.973 77.089 176.203 77.5212 175.581L130.701 98.0145C131.582 96.7348 133.334 96.4117 134.614 97.2928C135.893 98.1739 136.217 99.9256 135.335 101.205Z" fill="white"/>
<path d="M128.346 87.3791L76.3816 163.351C75.5005 164.63 73.7488 164.953 72.4691 164.072C71.1894 163.191 70.8662 161.439 71.7474 160.16L123.712 84.1883C124.593 82.9086 126.345 82.5855 127.624 83.4666C128.904 84.3477 129.227 86.0994 128.346 87.3791Z" fill="white"/>
<path d="M112.544 4.41825L52.2983 92.4691H108.821L105.022 98.0909H45.9167H45.3849C44.1146 97.2246 43.7761 95.4983 44.6252 94.2164L107.757 1.22745C108.624 -0.042882 110.35 -0.381367 111.632 0.467734C112.965 1.31375 113.371 3.07366 112.544 4.41825Z" fill="white"/>
<path d="M118.166 21.2838L78.4329 79.4019H117.786L113.911 85.0238H67.7969L71.5954 79.4019L113.532 18.169C114.459 17.0859 116.051 16.8691 117.235 17.6646C118.418 18.4601 118.818 20.0158 118.166 21.2838Z" fill="white"/>
</svg>
