<svg width="300" height="300" viewBox="0 0 300 300" fill="none" xmlns="http://www.w3.org/2000/svg">
<mask id="mask0_12_218" style="mask-type:luminance" maskUnits="userSpaceOnUse" x="90" y="5" width="120" height="290">
<path d="M209.958 5H90.0422V295H209.958V5Z" fill="white"/>
</mask>
<g mask="url(#mask0_12_218)">
<path d="M149.392 157.778H140.412V196.509H151.954C155.415 196.509 158.003 195.54 159.694 193.681C161.384 191.822 162.255 188.575 162.255 183.992V172.993C162.255 167.258 161.278 163.304 159.244 161.104C157.211 158.904 153.909 157.752 149.392 157.752V157.778Z" fill="white"/>
<path d="M157.211 136.645C159.165 134.628 160.142 131.198 160.142 126.431V119.387C160.142 110.771 156.762 106.45 150.026 106.346H140.359V139.708H148.257C152.245 139.708 155.282 138.661 157.237 136.618L157.211 136.645Z" fill="white"/>
<path d="M150 5C116.904 5 90.0422 31.6065 90.0422 64.4455V235.555C90.0422 268.368 116.878 295 150 295C183.096 295 209.958 268.393 209.958 235.555V64.4455C209.958 31.6328 183.122 5 150 5ZM182.171 184.62C182.171 194.388 179.583 201.799 174.459 206.905C171.236 210.1 167.089 212.274 162.018 213.479V217.957C162.018 221.151 159.377 223.77 156.154 223.77C152.932 223.77 150.264 221.151 150.264 217.957V214.552H140.359V217.957C140.359 221.151 137.718 223.77 134.495 223.77C131.273 223.77 128.632 221.151 128.632 217.957V214.552H126.809C122.557 214.552 120.417 212.431 120.417 208.215V94.6397C120.417 90.4235 122.557 88.3022 126.809 88.3022H128.632V82.0173C128.632 78.8225 131.273 76.2038 134.495 76.2038C137.718 76.2038 140.359 78.8225 140.359 82.0173V88.3022H150.264V82.0173C150.264 78.8225 152.905 76.2038 156.154 76.2038C159.403 76.2038 162.018 78.8225 162.018 82.0173V88.826C162.018 89.088 161.965 89.3237 161.939 89.5592C166.614 90.7115 170.365 92.6495 173.138 95.4253C177.839 100.192 180.243 107.498 180.243 117.344V122.372C180.243 135.309 175.885 143.584 167.274 147.12V147.46C177.232 150.812 182.198 159.611 182.198 173.778V184.62H182.171Z" fill="white"/>
</g>
</svg>
