<svg width="300" height="300" viewBox="0 0 300 300" fill="none" xmlns="http://www.w3.org/2000/svg">
<path d="M210.037 111.703C211.307 106.25 214.403 103.674 220.152 104.305C224.335 104.764 228.591 104.537 232.814 104.615H250C239.48 122.253 229.82 139.387 218.761 155.655C211.746 168.015 204.969 180.524 196.866 192.207C189.352 205.762 181.462 219.079 172.77 231.89C171.265 236.554 168.143 240.204 164.916 245.454C157.513 232.789 150.557 220.889 143.602 208.989L143.595 208.975C132.722 191.319 121.819 173.679 111.032 155.966C110.161 154.535 107.55 151.591 111.979 151.523C122.691 151.358 133.41 151.607 144.124 151.835C144.685 151.847 145.219 153.215 145.766 153.952C152.025 163.921 158.291 173.898 164.562 183.885C167.355 183.399 167.431 180.113 169.542 178.979C177.272 164.146 186.232 150.083 195.338 136.111C199.552 127.571 204.469 119.406 210.037 111.703ZM186.942 104.323C190.731 104.211 191.155 105.894 189.472 108.548C184.438 116.485 180.503 125.153 174.366 132.361C172.017 134.162 169.296 133.331 166.753 133.34C146.479 133.414 126.2 133.148 105.932 133.522C99.7538 133.636 95.8241 132.228 92.9434 126.172C89.5503 119.039 84.8968 112.53 80.1582 104.708H143.672C143.504 104.825 143.355 104.968 143.229 105.131C143.394 105.01 143.543 104.868 143.672 104.708C147.525 104.71 151.378 104.713 155.231 104.715C156.247 104.713 157.262 104.71 158.277 104.708C167.833 104.599 177.392 104.606 186.942 104.323ZM214.9 54.5715C216.764 54.5655 219.98 54.0644 217.255 57.7883C212.658 68.1061 206.926 77.8658 200.168 86.8811C194.068 89.6321 187.662 87.8175 181.414 88.0354C173.167 88.3231 164.897 87.9059 156.637 87.7912C155.663 87.7948 154.69 87.7984 153.716 87.802C127.186 87.8976 100.657 88.0239 74.1279 88.1809C73.0622 88.3379 71.9744 88.1845 70.9912 87.7395C70.0081 87.2944 69.1695 86.5761 68.5742 85.6672C62.5965 75.751 56.614 65.8373 50 54.8733H150.958L169.762 54.8791C184.808 54.7642 199.854 54.6185 214.9 54.5715Z" fill="white"/>
</svg>
