<svg width="141" height="53" viewBox="0 0 141 53" fill="none" xmlns="http://www.w3.org/2000/svg">
<g clip-path="url(#clip0_159_11)">
<path d="M80.2856 16.9379H70.7251V14.0396H81.6406L80.2856 16.9379ZM70.7251 30.2812V19.121H79.1941L77.8014 22.038H73.8868V30.3188L70.7251 30.2812Z" fill="#2A2424"/>
<path d="M85.9503 30.0932C85.3518 30.1584 84.7463 30.0873 84.1792 29.8852C83.6121 29.6832 83.098 29.3554 82.6756 28.9264C82.0206 27.9245 81.7223 26.7311 81.8287 25.5388V18.105H85.0281V25.5388C84.9618 25.7711 84.9587 26.017 85.0194 26.2509C85.08 26.4847 85.2021 26.6981 85.3729 26.869C85.5437 27.0398 85.7572 27.1619 85.991 27.2225C86.2249 27.2831 86.4707 27.2801 86.7031 27.2138H87.6629V18.105H90.8622V30.0932H85.9503Z" fill="#2A2424"/>
<path d="M92.4429 30.0932V18.105H95.6234V27.2138H99.3874V30.0932H92.4429Z" fill="#2A2424"/>
<path d="M106.822 20.9844C106.404 20.9827 105.991 21.0651 105.606 21.2268C105.221 21.3885 104.873 21.6261 104.582 21.9254C104.283 22.2086 104.045 22.5501 103.883 22.9288C103.721 23.3075 103.639 23.7155 103.641 24.1273C103.643 24.5348 103.73 24.9374 103.895 25.3098C104.06 25.6823 104.3 26.0165 104.601 26.2916C104.891 26.5852 105.237 26.818 105.618 26.9764C106 27.1347 106.409 27.2154 106.822 27.2138V22.6594H110.002V30.1873H106.483C105.689 30.1803 104.904 30.0095 104.179 29.6857C103.454 29.3619 102.803 28.892 102.267 28.3053C101.679 27.7792 101.207 27.1355 100.883 26.4159C100.559 25.6962 100.389 24.9166 100.385 24.1273C100.423 22.5421 101.07 21.0324 102.191 19.9112C103.313 18.7899 104.822 18.1432 106.408 18.105H109.946V20.9844H106.822Z" fill="#2A2424"/>
<path d="M115.667 30.0932C115.069 30.1584 114.463 30.0873 113.896 29.8852C113.329 29.6832 112.815 29.3554 112.392 28.9264C111.737 27.9245 111.439 26.7311 111.546 25.5388V18.105H114.745V25.5388C114.679 25.7711 114.676 26.017 114.736 26.2509C114.797 26.4847 114.919 26.6981 115.09 26.869C115.261 27.0398 115.474 27.1619 115.708 27.2225C115.942 27.2831 116.188 27.2801 116.42 27.2138H117.304V18.105H120.504V30.0932H115.667Z" fill="#2A2424"/>
<path d="M121.858 22.6594H126.018C126.125 22.6646 126.233 22.6471 126.333 22.6082C126.434 22.5693 126.525 22.5098 126.601 22.4335C126.74 22.26 126.816 22.0442 126.816 21.8219C126.816 21.5995 126.74 21.3838 126.601 21.2102C126.521 21.1343 126.426 21.0753 126.323 21.0365C126.219 20.9977 126.109 20.98 125.999 20.9844H121.858V18.105H126.62C127.129 18.0869 127.636 18.1962 128.092 18.423C128.549 18.6497 128.942 18.9867 129.236 19.4035C129.75 20.1003 130.021 20.9467 130.007 21.8125C130.005 22.2182 129.929 22.6201 129.782 22.9981C129.631 23.3647 129.384 23.6835 129.066 23.9203C129.399 24.1543 129.654 24.4818 129.8 24.8613C129.951 25.3163 130.021 25.7939 130.007 26.2728V30.0368H126.827V27.2138C126.892 26.7354 126.771 26.2503 126.488 25.8588C126.093 25.6017 125.621 25.4887 125.152 25.5388H121.858V22.6594Z" fill="#2A2424"/>
<path d="M70.7249 36.8496H73.9996L65.3424 52.9029L56.7041 36.8496H59.9788L65.3424 47.0123L70.7249 36.8496Z" fill="#2A2424"/>
<path d="M81.8476 43.7938H73.6045V40.8579H81.8476V43.7938ZM73.6045 45.4687H81.8476V48.3858H76.8039V50.0608H81.8476V52.9026H73.6045V45.4687Z" fill="#2A2424"/>
<path d="M88.5096 40.8578C89.1078 40.7967 89.7121 40.8698 90.2786 41.0716C90.8451 41.2735 91.3594 41.599 91.7842 42.0246C92.4352 43.0283 92.7331 44.2203 92.6311 45.4122V52.9025H89.4318V45.4687C89.4981 45.2364 89.5011 44.9905 89.4405 44.7567C89.3798 44.5228 89.2578 44.3094 89.0869 44.1385C88.9161 43.9677 88.7027 43.8456 88.4688 43.785C88.2349 43.7244 87.9891 43.7274 87.7568 43.7937H86.8722V52.9025H83.6729V40.8578H88.5096Z" fill="#2A2424"/>
<path d="M93.6851 46.0711V43.1917H101.213V46.0711H93.6851ZM97.449 47.5579V48.3861C97.384 48.8645 97.5052 49.3496 97.7878 49.7411C98.1819 50.0011 98.6549 50.1143 99.124 50.061H101.269V52.9027H98.3712C97.7876 52.9575 97.1992 52.8812 96.6489 52.6793C96.0986 52.4774 95.6004 52.1552 95.1906 51.736C94.5108 50.7562 94.1794 49.5766 94.2497 48.3861V47.5956L97.449 47.5579ZM97.449 40.9521V43.8316H94.2497V40.9521H97.449Z" fill="#2A2424"/>
<path d="M107.047 52.9026C106.449 52.9678 105.843 52.8967 105.276 52.6946C104.709 52.4925 104.195 52.1647 103.773 51.7358C103.118 50.7339 102.819 49.5405 102.926 48.3482V40.8579H106.125V48.3858C106.06 48.8643 106.181 49.3494 106.464 49.7409C106.858 50.0009 107.331 50.1141 107.8 50.0608H108.685V40.8579H111.884V52.9026H107.047Z" fill="#2A2424"/>
<path d="M113.239 45.4688H117.398C117.506 45.4751 117.614 45.4583 117.715 45.4193C117.815 45.3804 117.906 45.3202 117.982 45.2429C118.136 45.0739 118.218 44.8506 118.208 44.6219C118.214 44.4026 118.141 44.1886 118.001 44.0196C117.922 43.9419 117.827 43.8816 117.724 43.8427C117.62 43.8038 117.509 43.7871 117.398 43.7938H113.239V40.8579H118.001C118.51 40.8399 119.016 40.9492 119.473 41.1759C119.93 41.4026 120.323 41.7396 120.617 42.1565C121.143 42.8686 121.414 43.7368 121.388 44.6219C121.387 45.0259 121.317 45.4268 121.181 45.8075C121.029 46.1991 120.776 46.5434 120.447 46.805C120.78 47.039 121.035 47.3665 121.181 47.746C121.331 48.2009 121.401 48.6785 121.388 49.1575V52.9214H118.208V50.0232C118.273 49.5448 118.152 49.0596 117.869 48.6681C117.475 48.4081 117.002 48.2949 116.533 48.3482H113.239V45.4688Z" fill="#2A2424"/>
<path d="M131.231 43.7938H122.988V40.8579H131.231V43.7938ZM122.988 45.4687H131.231V48.3858H126.187V50.0608H131.231V52.9026H122.988V45.4687Z" fill="#2A2424"/>
<path d="M136.839 40.8579V42.7399C136.894 43.3153 137.147 43.854 137.554 44.2643L138.853 45.6946L139.718 46.6168C140.276 47.289 140.582 48.1339 140.584 49.0069C140.623 49.5382 140.555 50.0719 140.384 50.5762C140.213 51.0806 139.941 51.5454 139.587 51.9428C139.293 52.2397 138.94 52.4718 138.551 52.6242C138.162 52.7765 137.746 52.8457 137.328 52.8274H132.567V50.0232H136.726C136.821 50.0239 136.915 50.0021 137 49.9596C137.085 49.9171 137.159 49.855 137.215 49.7785C137.362 49.5769 137.435 49.3311 137.422 49.0822C137.385 48.7999 137.26 48.5365 137.065 48.3294L135.691 46.9367C135.19 46.4071 134.754 45.8195 134.392 45.1865C133.936 44.4904 133.676 43.6842 133.64 42.8528V40.8579H136.839Z" fill="#2A2424"/>
<path d="M46.0899 13.7573H56.4785L32.4643 52.9027L16.3921 26.7243H26.7807L32.4267 35.9836L46.0899 13.7573ZM40.1052 13.7573H8.43131L13.3057 21.6993H35.2308L40.1052 13.7573ZM48.0284 0H0L3.16174 5.10019L5.68361 9.20293H42.3447L48.0284 0Z" fill="url(#paint0_linear_159_11)"/>
</g>
<defs>
<linearGradient id="paint0_linear_159_11" x1="0" y1="26.4608" x2="56.4785" y2="26.4608" gradientUnits="userSpaceOnUse">
<stop offset="0.35" stop-color="#FF783C"/>
<stop offset="1" stop-color="#FF4154"/>
</linearGradient>
<clipPath id="clip0_159_11">
<rect width="141" height="53" fill="white"/>
</clipPath>
</defs>
</svg>
