<svg width="180" height="180" viewBox="0 0 180 180" fill="none" xmlns="http://www.w3.org/2000/svg">
<path d="M22.7533 36.3473C17.9202 42.0645 14.148 48.7248 11.8493 56.0334C24.9341 53.0864 42.3215 52.3791 52.1646 51.6128C55.2295 38.9996 63.9527 29.3923 78.5699 30.0406C84.8765 30.3354 90.4169 34.4022 94.2481 40.6499C97.0772 37.644 100.849 35.64 105.859 34.9327C106.213 34.9327 106.979 34.8738 107.569 34.8738C97.1951 23.5572 82.401 16.3665 65.8388 16.3665C62.8328 16.3665 59.8858 16.6612 56.9388 17.1327C56.3494 17.1327 55.5831 17.2506 54.5811 17.4863C54.5222 17.4863 54.4043 17.4863 54.3454 17.4863C54.2864 17.4863 54.2275 17.4863 54.1096 17.4863C42.6752 20.2565 34.0699 18.0168 29.1778 11.3565C28.6474 10.6492 26.5844 7.5254 25.9361 2.04395C22.3407 5.75719 19.9831 11.887 21.9871 18.4294C23.5785 23.6161 26.5844 26.3863 29.8262 27.9777C24.8752 28.2724 20.7493 27.3294 16.6235 24.2055C14.2069 22.3784 12.6745 20.3744 10.1401 15.1287C7.78244 18.842 8.0182 22.9678 8.48972 25.0897C9.07913 27.9188 10.5526 31.1016 12.4387 32.9287C15.3268 35.7579 19.4526 36.4062 22.8122 36.3473H22.7533Z" fill="#7B50C2"/>
<path d="M78.6273 85.0921C85.9515 85.0921 91.8889 74.9326 91.8889 62.4001C91.8889 49.8676 85.9515 39.708 78.6273 39.708C71.3031 39.708 65.3657 49.8676 65.3657 62.4001C65.3657 74.9326 71.3031 85.0921 78.6273 85.0921Z" fill="#7B50C2"/>
<path d="M107.803 79.6111C113.532 79.6111 118.177 71.5362 118.177 61.5753C118.177 51.6144 113.532 43.5396 107.803 43.5396C102.074 43.5396 97.4297 51.6144 97.4297 61.5753C97.4297 71.5362 102.074 79.6111 107.803 79.6111Z" fill="#7B50C2"/>
<path d="M51.0449 64.1689C51.6343 80.8489 60.711 95.9374 78.6875 94.4053C85.1709 93.8159 90.7711 89.6315 94.6611 83.207C96.9598 85.4466 99.8481 86.9787 103.62 87.4502C111.105 88.3342 115.172 85.1519 116.822 83.9141C119.121 82.1458 121.066 79.7878 122.599 77.0176C133.267 79.2573 146.057 82.4989 156.902 86.5068C176.824 93.9333 171.99 108.315 171.99 108.315C151.656 105.368 127.078 101.596 99.1992 118.688C97.6668 119.808 96.0754 120.869 94.3662 121.871C91.0656 124.17 87.7062 126.646 84.3467 129.593C78.0401 135.015 69.6107 145.035 65.8975 152.285C57.4861 168.919 56.5006 177.23 56.4404 179.872C40.6357 176.102 21.9075 170.132 9.42383 165.294L9.37402 78.6094C19.1581 73.7763 37.5476 65.4656 51.0449 64.1689Z" fill="#7B50C2"/>
</svg>
