<svg width="180" height="180" viewBox="0 0 180 180" fill="none" xmlns="http://www.w3.org/2000/svg">
<rect width="180" height="180" rx="90" fill="white"/>
<path d="M94.2852 0C94.3972 0.23925 94.6182 0.159847 94.8008 0.166016C98.5917 0.352264 102.366 0.791197 106.099 1.47949C110.834 2.28168 115.489 3.50296 120.009 5.12891C124.956 6.83399 129.73 9.00784 134.264 11.6201C135.855 12.5614 137.466 13.4676 139.002 14.498C141.36 15.9978 143.599 17.6572 145.813 19.3643C149.426 22.2688 152.84 25.412 156.031 28.7734C156.241 28.9855 156.54 29.1471 156.543 29.5078C157.852 30.7908 159.066 32.168 160.175 33.6279C161.093 34.7304 161.925 35.9043 162.788 37.0518C162.855 37.1689 162.906 37.2947 162.941 37.4248C164.451 39.3176 165.808 41.3272 166.999 43.4346C168.061 45.0799 169.004 46.799 169.82 48.5791C171.612 51.8608 173.146 55.2775 174.406 58.7979C175.101 60.5891 175.697 62.4127 176.229 64.2578C177.231 67.6657 178.041 71.1268 178.656 74.625C178.956 76.3108 179.075 78.0212 179.442 79.6953C179.487 80.1139 179.484 80.5362 179.434 80.9541C179.878 81.7762 179.678 82.7043 179.75 83.5605C179.999 86.7893 180.062 90.0296 179.939 93.2656C179.778 95.1669 179.723 97.0746 179.503 98.9746C179.328 100.484 179.18 101.996 178.954 103.499C178.79 104.587 178.6 105.672 178.422 106.758C177.981 108.732 177.61 110.725 177.082 112.676C176.469 115.194 175.693 117.67 174.76 120.087C174.241 121.789 173.614 123.456 172.883 125.078C171.843 127.625 170.629 130.095 169.344 132.527C168.973 133.229 168.538 133.897 168.133 134.581C167.253 136.293 166.26 137.944 165.158 139.522C163.084 142.753 160.761 145.817 158.21 148.687C157.935 148.99 157.758 149.383 157.386 149.603C156.235 151.105 154.949 152.5 153.544 153.769C150.904 156.421 148.084 158.887 145.104 161.15C143.428 162.402 141.755 163.651 140.002 164.792C136.14 167.441 132.055 169.75 127.793 171.692C122.444 174.2 116.851 176.153 111.104 177.52C108.27 178.209 105.401 178.748 102.51 179.134C100.31 179.414 98.1083 179.617 95.9004 179.807C92.4027 180.025 88.8958 180.058 85.3945 179.908C83.2779 179.868 81.1511 179.57 79.0322 179.324C74.797 178.812 70.602 178.007 66.4785 176.913C62.9242 175.963 59.4346 174.785 56.0312 173.388C53.5699 172.424 51.1606 171.33 48.8145 170.112C45.971 168.656 43.2126 167.039 40.5527 165.27C40.3076 165.101 40.0498 164.952 39.7979 164.793C37.8072 163.457 35.8649 162.053 33.9912 160.558C30.8557 158.1 27.9051 155.415 25.1631 152.524C24.2824 151.58 23.2229 150.768 22.583 149.604C21.2058 148.24 19.9444 146.765 18.8125 145.192C16.4839 142.157 14.3298 138.992 12.3604 135.713C12.2853 135.567 12.2223 135.416 12.1719 135.26C10.6777 132.75 9.3263 130.159 8.12402 127.497C6.1288 123.2 4.49244 118.745 3.23242 114.179C2.44074 111.411 1.81057 108.6 1.34375 105.76C1.16177 105.038 1.0437 104.302 0.992188 103.56C0.829868 102.486 0.642572 101.415 0.511719 100.338C0.297651 98.8059 0.18111 97.2616 0.163086 95.7148C0.169055 95.6599 0.15655 95.6043 0.126953 95.5576C0.0973162 95.5109 0.0523125 95.476 0 95.458V84.833C0.271915 84.6965 0.15735 84.4427 0.164062 84.2393C0.278742 81.2945 0.617074 78.3623 1.17578 75.4688C1.19442 75.3305 1.20577 75.1912 1.20898 75.0518C1.99935 70.0282 3.27209 65.0924 5.01074 60.3135C5.10264 60.0584 5.03851 59.7519 5.25684 59.5352C7.08177 54.3784 9.39742 49.4087 12.1719 44.6943C13.5503 42.1878 15.0924 39.7746 16.7881 37.4707C18.7724 34.6816 20.9326 32.0216 23.2559 29.5078C25.7807 26.7641 28.4599 24.1657 31.2793 21.7256C34.1788 19.2497 37.2244 16.9501 40.3994 14.8389C40.5824 14.717 40.7768 14.6112 40.9658 14.498C44.6212 12.1014 48.4551 9.98748 52.4326 8.1748C56.127 6.48652 59.9292 5.04512 63.8145 3.86035C67.6101 2.68843 71.4851 1.78959 75.4092 1.17188C78.6884 0.59204 82.0061 0.256638 85.335 0.166992C85.4751 0.165789 85.6175 0.161359 85.6826 0H94.2852ZM90.5225 33.5391C89.6495 33.3228 89.5583 33.3694 89.3467 34.2188C88.5272 37.5074 87.6713 40.7871 86.8926 44.0859C86.8088 44.4411 86.8733 44.9516 86.3662 45.0469L86.3682 45.0537C86.0811 46.2775 85.7852 47.5 85.5107 48.7266C85.3751 49.3309 84.9744 49.0688 84.6543 49.002C81.8623 48.4185 79.1125 47.663 76.3516 46.9521C73.9531 46.3347 71.5509 45.7309 69.1504 45.1211C68.3888 45.2476 67.6067 45.1581 66.8936 44.8623C66.3646 44.6876 65.7921 44.6956 65.2686 44.8857C65.5212 45.226 65.3188 45.5711 65.2461 45.9033C64.6708 48.5373 63.9679 51.1414 63.332 53.7607C63.1173 54.6453 63.1356 54.681 64.0381 54.8975C65.9221 55.3495 67.8111 55.7824 69.6865 56.2695C70.9237 56.5519 72.0842 57.1026 73.085 57.8828C73.5714 58.2827 74.101 58.7045 74.0381 59.4434C74.3278 59.6432 74.5273 59.9487 74.5957 60.2939C74.8541 61.1897 74.8682 62.1382 74.6357 63.041C73.7165 66.7468 72.7896 70.4512 71.8555 74.1533C71.7714 74.4865 71.7422 74.8708 71.3545 75.0352C71.6669 75.3708 71.4396 75.7952 71.3477 76.167C70.3712 80.0934 69.392 84.0193 68.4102 87.9443C68.2534 88.5711 68.122 89.2057 67.9268 89.8213C67.8476 90.0714 67.8106 90.4166 67.4834 90.4209C67.4855 90.4321 67.4895 90.4393 67.4912 90.4512C67.5485 90.5948 67.5765 90.7487 67.5723 90.9033C67.568 91.0579 67.532 91.2103 67.4668 91.3506C66.4722 95.2151 65.6745 99.1278 64.6377 102.981C64.5456 103.324 64.5923 103.83 64.1104 103.911C64.1128 103.923 64.1171 103.931 64.1191 103.943C64.3875 105.109 63.9133 106.162 63.4756 107.158C62.6505 109.035 61.1528 109.68 58.8594 109.257C56.8718 108.89 54.9326 108.308 52.9688 107.835C51.9154 107.581 51.9371 107.588 51.4844 108.6C50.7506 110.238 50.0888 111.909 49.3174 113.53C49.1953 113.787 49.1635 114.156 48.7568 114.182C48.8843 114.375 48.7579 114.625 48.6777 114.843C48.3869 115.632 48.0082 116.386 47.6777 117.159C47.1085 118.491 47.0978 118.494 48.5381 118.86C50.414 119.335 52.2913 119.805 54.1699 120.269C57.9542 121.203 61.7299 122.173 65.5049 123.145C66.9533 123.517 67.0239 123.626 66.6748 125.042C66.5338 125.614 66.3977 126.187 66.2432 126.755C66.2002 127.019 66.0637 127.26 65.8584 127.432C65.915 127.555 65.9456 127.689 65.9492 127.824C65.9528 127.96 65.929 128.095 65.8789 128.221C65.3325 130.425 64.7912 132.631 64.2266 134.83C64.167 135.062 64.1176 135.32 63.873 135.438C63.9123 135.703 63.8859 135.973 63.7949 136.226C63.5548 137.238 63.3023 138.246 63.0381 139.252C62.9026 139.767 63.0546 140.04 63.583 140.167C66.1788 140.792 68.7553 141.499 71.3623 142.076C72.4034 142.307 72.4311 142.259 72.6865 141.246C73.1402 139.448 73.5816 137.646 74.04 135.849C74.139 135.461 74.1982 135.039 74.5801 134.816C75.2366 132.137 75.8989 129.459 76.541 126.776C76.631 126.401 76.7715 126.364 77.1211 126.457C79.392 127.061 81.6704 127.638 83.9463 128.224C84.2632 128.305 84.4828 128.379 84.3613 128.83C83.8177 130.85 83.3184 132.881 82.8027 134.908C83.032 135.181 82.8519 135.522 82.7812 135.817C82.2975 137.837 81.7854 139.85 81.2744 141.863C81.1222 142.463 81.0455 143.077 80.9014 143.677C80.7867 144.154 80.927 144.416 81.416 144.537C84.0851 145.202 86.7539 145.87 89.4219 146.54C90.129 146.718 90.2856 146.318 90.4199 145.761C91.2358 142.377 92.0961 139.005 92.9414 135.629C92.9971 135.216 93.1597 134.824 93.4121 134.492C93.3618 134.384 93.3343 134.265 93.333 134.146C93.3318 134.026 93.3562 133.907 93.4043 133.797C93.5873 133.004 93.7806 132.213 93.9961 131.429C94.224 130.598 94.4792 130.423 95.3418 130.566C97.7779 130.973 100.22 131.341 102.678 131.581C107.752 132.076 112.779 131.945 117.609 130.086C122.061 128.372 125.185 125.183 127.387 121.018C127.608 120.6 127.719 120.075 128.189 119.85C128.149 119.699 128.14 119.542 128.163 119.388C128.186 119.234 128.24 119.085 128.322 118.953C129.52 116.08 130.286 113.044 130.594 109.946C130.647 109.358 130.63 108.772 130.65 108.185C130.663 107.827 130.592 107.449 130.862 107.143L130.867 107.129C130.511 107.072 130.547 106.667 130.497 106.345C130.145 103.624 129.01 101.064 127.231 98.9746C125.544 97.0099 123.521 95.3601 121.258 94.1006C121.081 94.0153 120.911 93.9155 120.75 93.8027C120.39 93.5219 120.316 93.2962 120.608 93.1484C120.737 92.8267 121.097 92.8519 121.359 92.7646C122.893 92.3071 124.357 91.6409 125.709 90.7852C128.401 88.9625 130.436 86.322 131.512 83.2539C131.794 82.4946 131.81 81.622 132.404 80.9863C132.207 80.7744 132.301 80.4713 132.344 80.1963C132.469 79.3919 132.607 78.5913 132.699 77.7803C132.981 75.5273 132.764 73.2393 132.062 71.0801C131.359 68.9209 130.189 66.9429 128.636 65.2871C128.437 65.0632 128.172 64.8639 128.187 64.5205C127.919 64.4571 127.676 64.3164 127.487 64.1162C124.524 61.5303 121.14 59.4696 117.482 58.0234C116.215 57.4939 114.937 56.9874 113.64 56.5371C112.981 56.3083 112.75 55.9561 112.953 55.2734C113.546 53.2846 113.981 51.2538 114.514 49.249C114.541 48.9706 114.674 48.7129 114.885 48.5293C114.677 48.1583 114.867 47.7955 114.953 47.4434C115.485 45.2644 116.015 43.0841 116.597 40.918C116.774 40.2589 116.632 39.949 115.942 39.7891C114.113 39.3647 112.291 38.9013 110.472 38.4336C110.121 38.4059 109.792 38.2549 109.542 38.0078C109.152 38.0913 108.745 38.0579 108.374 37.9111C107.942 37.7733 107.485 37.7346 107.036 37.7979C105.814 42.7369 104.602 47.6782 103.399 52.6221C103.297 53.0443 103.144 53.1673 102.706 53.0615C100.475 52.5193 98.239 52.0004 95.998 51.5039C95.5534 51.4053 95.3677 51.2654 95.4893 50.7881C96.601 46.4016 97.7108 42.0145 98.8193 37.627C98.5586 37.3473 98.6982 36.9811 98.7607 36.6396C98.9357 35.6828 98.9217 35.6353 98.0244 35.4102C95.5249 34.7822 93.0241 34.1589 90.5225 33.5391ZM85.1133 93.3936C85.2158 92.9768 85.2796 92.6541 85.8574 92.791C90.5455 93.9026 95.2719 94.8774 99.7656 96.6797C102.464 97.6529 104.965 99.1049 107.148 100.965C109.055 102.7 110.394 104.747 110.467 107.433C110.474 112.444 108.039 116.104 102.518 117.205C99.107 117.773 95.6241 117.748 92.2217 117.134C88.2957 116.483 84.4096 115.61 80.583 114.518C80.0955 114.389 79.8932 114.267 80.0557 113.675C80.6391 111.55 81.1445 109.403 81.6797 107.265C82.8312 102.643 83.9758 98.0189 85.1133 93.3936ZM92.5537 63.7803C92.7069 63.1563 92.8926 63.0618 93.5127 63.2031C97.5057 64.1133 101.511 64.9718 105.291 66.6113C107.436 67.4642 109.397 68.7218 111.066 70.3154C112.181 71.3808 112.975 72.7371 113.358 74.2305C113.742 75.7241 113.7 77.2958 113.236 78.7666C112.377 82.0285 110.181 83.9767 106.968 84.8213C105.313 85.2269 103.609 85.403 101.906 85.3457C98.2248 85.2634 94.1248 84.3449 90.0605 83.2324C89.3407 83.0354 88.2984 83.1028 88.0059 82.5117C87.7558 82.0057 88.2199 81.1343 88.3955 80.4316C89.7834 74.8815 91.1894 69.336 92.5537 63.7803Z" fill="#F69A2B"/>
</svg>
