<svg width="150" height="180" viewBox="0 0 150 180" fill="none" xmlns="http://www.w3.org/2000/svg">
<mask id="mask0_123_570" style="mask-type:luminance" maskUnits="userSpaceOnUse" x="0" y="0" width="150" height="180">
<path d="M149.509 0H0V180H149.509V0Z" fill="white"/>
</mask>
<g mask="url(#mask0_123_570)">
<path d="M74.8206 0L15.7415 35.6976L26.4771 54.2367H149.509V45.0986L74.8206 0Z" fill="url(#paint0_radial_123_570)"/>
<path d="M69.8807 141.869L10.1429 38.5894L0 44.7033V134.901L54.2053 167.705L69.8807 141.869Z" fill="url(#paint1_radial_123_570)"/>
<path d="M59.8694 170.928L74.8203 180L149.509 134.902V60.1538H127.05L59.8694 170.928Z" fill="url(#paint2_linear_123_570)"/>
<path d="M146.216 133.587L146.941 63.9009L74.7548 177.305L146.216 133.587Z" fill="url(#paint3_linear_123_570)"/>
<path d="M146.414 62.7827C146.744 62.7827 146.941 78.6921 146.809 98.2831C146.678 117.874 146.283 133.783 145.953 133.783C145.624 133.783 145.426 117.874 145.558 98.2831C145.69 78.6921 146.085 62.7827 146.414 62.7827Z" fill="url(#paint4_radial_123_570)"/>
<path d="M148.539 132.074C148.715 132.351 135.35 141.023 118.693 151.385C102.036 161.747 88.3539 169.918 88.178 169.641C88.0015 169.363 101.366 160.692 118.024 150.33C134.681 139.967 148.363 131.796 148.539 132.074Z" fill="url(#paint5_radial_123_570)"/>
<path d="M3.68909 131.613L54.7988 160.342L4.61117 53.7754L3.68909 131.613Z" fill="url(#paint6_linear_123_570)"/>
<path d="M4.14956 62.7827C4.47887 62.7827 4.67646 78.6921 4.54473 98.2831C4.41301 117.874 4.01783 133.783 3.68851 133.783C3.3592 133.783 3.16161 117.874 3.29334 98.2831C3.49093 78.6264 3.82024 62.7827 4.14956 62.7827Z" fill="url(#paint7_radial_123_570)"/>
<path d="M45.6151 157.549C45.4409 157.828 35.7572 152.03 24.0312 144.573C12.3052 137.116 2.93538 130.816 3.10969 130.537C3.28401 130.258 12.9677 136.056 24.6936 143.514C36.4243 151.051 45.7895 157.271 45.6151 157.549Z" fill="url(#paint8_radial_123_570)"/>
<path d="M75.7432 6.90332L23.6455 36.8157L145.163 46.3482L75.7432 6.90332Z" fill="url(#paint9_linear_123_570)"/>
<path d="M71.1327 3.61574C71.3962 3.22129 87.7961 12.4251 107.818 24.1928C127.841 35.9605 143.846 45.8875 143.582 46.2819C143.319 46.6764 126.919 37.4726 106.896 25.7048C86.874 13.9371 70.8693 4.01018 71.1327 3.61574Z" fill="url(#paint10_radial_123_570)"/>
<path d="M64.81 13.1484C64.81 13.2799 56.0502 18.6707 49.3322 22.4837C42.6141 26.2967 36.884 29.3208 36.884 29.2551C36.884 29.1236 42.6141 25.968 49.3322 22.0893C56.0502 18.2105 64.81 13.017 64.81 13.1484Z" fill="white"/>
</g>
<defs>
<radialGradient id="paint0_radial_123_570" cx="0" cy="0" r="1" gradientUnits="userSpaceOnUse" gradientTransform="translate(82.6353 27.1052) scale(51.865 51.7692)">
<stop offset="0.13" stop-color="#FFEF00"/>
<stop offset="0.19" stop-color="#FFE403"/>
<stop offset="0.3" stop-color="#FFC60A"/>
<stop offset="0.45" stop-color="#FF9615"/>
<stop offset="0.63" stop-color="#FF5425"/>
<stop offset="0.8" stop-color="#FF0F36"/>
</radialGradient>
<radialGradient id="paint1_radial_123_570" cx="0" cy="0" r="1" gradientUnits="userSpaceOnUse" gradientTransform="translate(34.9436 103.134) scale(51.986 51.89)">
<stop offset="0.19" stop-color="#1BEB39"/>
<stop offset="0.45" stop-color="#24DF2E"/>
<stop offset="0.91" stop-color="#3DC00F"/>
<stop offset="1" stop-color="#42B909"/>
</radialGradient>
<linearGradient id="paint2_linear_123_570" x1="59.8628" y1="120.061" x2="149.509" y2="120.061" gradientUnits="userSpaceOnUse">
<stop stop-color="#16E4DD"/>
<stop offset="0.5" stop-color="#0B34D9" stop-opacity="0.8"/>
</linearGradient>
<linearGradient id="paint3_linear_123_570" x1="173.879" y1="63.7694" x2="81.6317" y2="123.888" gradientUnits="userSpaceOnUse">
<stop stop-color="white"/>
<stop offset="0.08" stop-color="white" stop-opacity="0.8"/>
<stop offset="0.17" stop-color="white" stop-opacity="0.62"/>
<stop offset="0.26" stop-color="white" stop-opacity="0.45"/>
<stop offset="0.36" stop-color="white" stop-opacity="0.31"/>
<stop offset="0.46" stop-color="white" stop-opacity="0.2"/>
<stop offset="0.57" stop-color="white" stop-opacity="0.11"/>
<stop offset="0.68" stop-color="white" stop-opacity="0.05"/>
<stop offset="0.82" stop-color="white" stop-opacity="0.01"/>
<stop offset="1" stop-color="white" stop-opacity="0"/>
</linearGradient>
<radialGradient id="paint4_radial_123_570" cx="0" cy="0" r="1" gradientTransform="matrix(0.228778 -35.8163 0.612838 0.00390011 146.219 97.7302)" gradientUnits="userSpaceOnUse">
<stop offset="0.2" stop-color="white"/>
<stop offset="0.59" stop-color="white" stop-opacity="0.04"/>
<stop offset="1" stop-color="white" stop-opacity="0"/>
</radialGradient>
<radialGradient id="paint5_radial_123_570" cx="0" cy="0" r="1" gradientTransform="matrix(30.4471 -18.9539 0.324314 0.519048 118.845 150.591)" gradientUnits="userSpaceOnUse">
<stop offset="0.2" stop-color="white"/>
<stop offset="0.59" stop-color="white" stop-opacity="0.04"/>
<stop offset="1" stop-color="white" stop-opacity="0"/>
</radialGradient>
<linearGradient id="paint6_linear_123_570" x1="39.2443" y1="170.896" x2="28.0369" y2="60.8595" gradientUnits="userSpaceOnUse">
<stop stop-color="white" stop-opacity="0"/>
<stop offset="0.18" stop-color="white" stop-opacity="0.01"/>
<stop offset="0.32" stop-color="white" stop-opacity="0.05"/>
<stop offset="0.43" stop-color="white" stop-opacity="0.11"/>
<stop offset="0.54" stop-color="white" stop-opacity="0.2"/>
<stop offset="0.64" stop-color="white" stop-opacity="0.31"/>
<stop offset="0.74" stop-color="white" stop-opacity="0.45"/>
<stop offset="0.83" stop-color="white" stop-opacity="0.62"/>
<stop offset="0.92" stop-color="white" stop-opacity="0.8"/>
<stop offset="1" stop-color="white"/>
</linearGradient>
<radialGradient id="paint7_radial_123_570" cx="0" cy="0" r="1" gradientTransform="matrix(0.228779 -35.8163 0.612841 0.00390012 3.95397 97.7302)" gradientUnits="userSpaceOnUse">
<stop offset="0.2" stop-color="white"/>
<stop offset="0.59" stop-color="white" stop-opacity="0.04"/>
<stop offset="1" stop-color="white" stop-opacity="0"/>
</radialGradient>
<radialGradient id="paint8_radial_123_570" cx="0" cy="0" r="1" gradientTransform="matrix(21.4438 13.6231 -0.329059 0.516052 24.6769 144.28)" gradientUnits="userSpaceOnUse">
<stop offset="0.2" stop-color="white"/>
<stop offset="0.59" stop-color="white" stop-opacity="0.04"/>
<stop offset="1" stop-color="white" stop-opacity="0"/>
</radialGradient>
<linearGradient id="paint9_linear_123_570" x1="34.9081" y1="20.0516" x2="129.781" y2="64.0933" gradientUnits="userSpaceOnUse">
<stop stop-color="white"/>
<stop offset="0.08" stop-color="white" stop-opacity="0.8"/>
<stop offset="0.17" stop-color="white" stop-opacity="0.62"/>
<stop offset="0.26" stop-color="white" stop-opacity="0.45"/>
<stop offset="0.36" stop-color="white" stop-opacity="0.31"/>
<stop offset="0.46" stop-color="white" stop-opacity="0.2"/>
<stop offset="0.57" stop-color="white" stop-opacity="0.11"/>
<stop offset="0.68" stop-color="white" stop-opacity="0.05"/>
<stop offset="0.82" stop-color="white" stop-opacity="0.01"/>
<stop offset="1" stop-color="white" stop-opacity="0"/>
</linearGradient>
<radialGradient id="paint10_radial_123_570" cx="0" cy="0" r="1" gradientTransform="matrix(-36.5435 -21.5401 0.449796 -0.760279 106.992 25.447)" gradientUnits="userSpaceOnUse">
<stop offset="0.2" stop-color="white"/>
<stop offset="0.59" stop-color="white" stop-opacity="0.04"/>
<stop offset="1" stop-color="white" stop-opacity="0"/>
</radialGradient>
</defs>
</svg>
