<svg width="121" height="28" viewBox="0 0 121 28" fill="none" xmlns="http://www.w3.org/2000/svg">
<g clip-path="url(#clip0_996_11715)">
<path fill-rule="evenodd" clip-rule="evenodd" d="M66.9185 6.11253C64.4523 6.11253 62.6312 7.14895 61.6518 9.10867L61.2513 9.9107V0H53.4196V26.5016H61.2513V16.0457C61.2513 14.3631 61.397 12.7214 63.1417 12.7214C64.8864 12.7214 64.9618 14.195 64.9618 15.8357V26.5016H72.7233V13.3175C72.7233 8.40244 70.8787 6.11355 66.9185 6.11355V6.11253ZM26.2433 6.11253C19.8149 6.11253 15.8221 10.0259 15.8221 16.3239V17.0586C15.8221 23.5788 19.3899 27.0254 26.1384 27.0254C31.9238 27.0254 35.3286 24.7263 36.5372 19.9987H28.3783C28.0165 20.7987 27.3511 21.188 26.3493 21.188C24.6841 21.188 23.7842 20.3523 23.5172 18.5598L23.4806 18.3172H36.5953V16.0803C36.5953 9.74662 32.8226 6.11355 26.2443 6.11355L26.2433 6.11253ZM23.4693 14.3326L23.5172 14.0819C23.8209 12.4849 24.7096 11.741 26.3136 11.741C27.9177 11.741 28.7717 12.488 29.0061 14.091L29.0418 14.3336H23.4693V14.3326ZM74.6015 16.3239C74.6015 10.0259 78.5943 6.11253 85.0227 6.11253L85.0238 6.11355C91.602 6.11355 95.3747 9.74662 95.3747 16.0803V18.3172H82.26L82.2967 18.5598C82.5637 20.3523 83.4635 21.188 85.1287 21.188C86.1305 21.188 86.796 20.7987 87.1577 19.9987H95.3166C94.108 24.7263 90.7032 27.0254 84.9178 27.0254C78.1693 27.0254 74.6015 23.5788 74.6015 17.0586V16.3239ZM82.2967 14.0819L82.2488 14.3326V14.3336H87.8212L87.7855 14.091C87.5511 12.488 86.6971 11.741 85.093 11.741C83.489 11.741 82.6003 12.4849 82.2967 14.0819ZM111.594 6.11253H110.862C107.025 6.11253 105.422 7.20194 104.95 10.1318L104.8 11.0592L103.463 6.46208H97.3283V26.5005H105.439V18.038C105.439 15.2834 106.315 14.3988 109.044 14.3988H111.561L111.595 6.11253H111.594ZM118.656 18.0135L120.445 21.0861V21.0851C120.538 21.2441 120.511 21.4448 120.378 21.5742L115.453 26.3823C115.293 26.5383 115.037 26.5383 114.877 26.3823L109.958 21.5814C109.822 21.4489 109.797 21.242 109.897 21.082L111.81 18.0033C111.885 17.8841 112.017 17.8107 112.159 17.8107H118.301C118.447 17.8107 118.583 17.8882 118.656 18.0135ZM10.0897 1.74062H3.90276V1.83234C3.86403 2.91768 3.77028 3.78085 3.61639 4.46263C3.3871 5.43179 2.91628 6.15433 2.25387 6.55483C1.74228 6.84629 1.15324 7.00527 0.5 7.02871V13.287H2.74711V17.7231C2.74711 24.4501 4.62632 26.5006 10.7898 26.5006H14.4259V19.3689H13.4833C10.6889 19.3689 10.0887 19.0765 10.0887 15.9743V13.2798H14.4259V6.46311H10.0887V1.74164L10.0897 1.74062ZM40.7492 1.74062H46.9361V1.74266V6.46413H51.2733V13.2809H46.9361V15.9753C46.9361 19.0775 47.5363 19.37 50.3307 19.37H51.2733V26.5016H47.6372C41.4737 26.5016 39.5945 24.4512 39.5945 17.7241V13.288H37.3474V7.02973C38.0007 7.00629 38.5897 6.84731 39.1013 6.55585C39.7637 6.15534 40.2345 5.43281 40.4638 4.46365C40.6167 3.78289 40.7104 2.92176 40.7492 1.8405V1.74062Z" fill="#F2F1EF"/>
</g>
<defs>
<clipPath id="clip0_996_11715">
<rect width="120" height="27.0254" fill="white" transform="translate(0.5)"/>
</clipPath>
</defs>
</svg>
