<svg width="121" height="28" viewBox="0 0 121 28" fill="none" xmlns="http://www.w3.org/2000/svg">
<g clip-path="url(#clip0_996_11704)">
<path fill-rule="evenodd" clip-rule="evenodd" d="M66.9185 6.44994C64.4523 6.44994 62.6312 7.48636 61.6518 9.44608L61.2513 10.2481V0.337402H53.4196V26.839H61.2513V16.3831C61.2513 14.7005 61.397 13.0588 63.1417 13.0588C64.8864 13.0588 64.9618 14.5324 64.9618 16.1731V26.839H72.7233V13.6549C72.7233 8.73984 70.8787 6.45095 66.9185 6.45095V6.44994ZM26.2433 6.44993C19.8149 6.44993 15.8221 10.3633 15.8221 16.6613V17.396C15.8221 23.9162 19.3899 27.3628 26.1384 27.3628C31.9238 27.3628 35.3286 25.0637 36.5372 20.3361H28.3783C28.0165 21.1361 27.3511 21.5254 26.3493 21.5254C24.6841 21.5254 23.7842 20.6898 23.5172 18.8972L23.4806 18.6546H36.5953V16.4177C36.5953 10.084 32.8226 6.45095 26.2443 6.45095L26.2433 6.44993ZM23.4693 14.67L23.5172 14.4193C23.8209 12.8223 24.7096 12.0784 26.3136 12.0784C27.9177 12.0784 28.7717 12.8254 29.0061 14.4284L29.0418 14.671H23.4693V14.67ZM74.6015 16.6613C74.6015 10.3633 78.5943 6.44993 85.0227 6.44993L85.0238 6.45095C91.602 6.45095 95.3747 10.084 95.3747 16.4177V18.6546H82.26L82.2967 18.8972C82.5637 20.6898 83.4635 21.5254 85.1287 21.5254C86.1305 21.5254 86.796 21.1361 87.1577 20.3361H95.3166C94.108 25.0637 90.7032 27.3628 84.9178 27.3628C78.1693 27.3628 74.6015 23.9162 74.6015 17.396V16.6613ZM82.2967 14.4193L82.2488 14.67V14.671H87.8212L87.7855 14.4284C87.5511 12.8254 86.6971 12.0784 85.093 12.0784C83.489 12.0784 82.6003 12.8223 82.2967 14.4193ZM111.594 6.44993H110.862C107.025 6.44993 105.422 7.53934 104.95 10.4692L104.8 11.3966L103.463 6.79948H97.3283V26.8379H105.439V18.3754C105.439 15.6208 106.315 14.7362 109.044 14.7362H111.561L111.595 6.44993H111.594ZM118.656 18.3509L120.445 21.4235V21.4225C120.538 21.5815 120.511 21.7822 120.378 21.9116L115.453 26.7197C115.293 26.8757 115.037 26.8757 114.877 26.7197L109.958 21.9188C109.822 21.7863 109.797 21.5794 109.897 21.4194L111.81 18.3407C111.885 18.2215 112.017 18.1481 112.159 18.1481H118.301C118.447 18.1481 118.583 18.2256 118.656 18.3509ZM10.0897 2.07802H3.90276V2.16975C3.86403 3.25508 3.77028 4.11826 3.61639 4.80003C3.3871 5.76919 2.91628 6.49173 2.25387 6.89223C1.74228 7.18369 1.15324 7.34267 0.5 7.36611V13.6244H2.74711V18.0605C2.74711 24.7875 4.62632 26.838 10.7898 26.838H14.4259V19.7063H13.4833C10.6889 19.7063 10.0887 19.4139 10.0887 16.3117V13.6172H14.4259V6.80051H10.0887V2.07905L10.0897 2.07802ZM40.7492 2.07802H46.9361V2.08007V6.80153H51.2733V13.6183H46.9361V16.3127C46.9361 19.4149 47.5363 19.7074 50.3307 19.7074H51.2733V26.839H47.6372C41.4737 26.839 39.5945 24.7886 39.5945 18.0615V13.6254H37.3474V7.36713C38.0007 7.34369 38.5897 7.18471 39.1013 6.89325C39.7637 6.49275 40.2345 5.77021 40.4638 4.80105C40.6167 4.12029 40.7104 3.25916 40.7492 2.1779V2.07802Z" fill="#171717"/>
</g>
<defs>
<clipPath id="clip0_996_11704">
<rect width="120" height="27.0254" fill="white" transform="translate(0.5 0.337402)"/>
</clipPath>
</defs>
</svg>
