<svg xmlns="http://www.w3.org/2000/svg" width="188" height="39" fill="none"><g clip-path="url(#a)"><path fill="#9DD3E6" d="M12.935 13.034v12.983L6.472 19.53l6.463-6.496Z"/><path fill="#FFF784" d="M25.87.05v12.984l-6.464-6.488L25.87.051Z"/><path fill="#A08BF7" d="m38.805.05-6.463 6.496L25.87.051h12.935ZM12.935 0 6.472 6.496 0 0h12.935ZM12.935 39H0l6.472-6.496L12.935 39Z"/><path fill="#FFF784" d="M25.87 26.009V38.99l-6.463-6.495L25.87 26v.009Z"/><path fill="#A08BF7" d="M38.805 39H25.87l6.472-6.496L38.805 39Z"/><path fill="#89C1D5" d="m19.406 19.521-6.471 6.487V13.025l6.471 6.496Z"/><path fill="#EFE860" d="M32.333 32.505 25.861 39V26.018l6.472 6.495v-.008Z"/><path fill="#EF9E9B" d="M25.87 26.009H12.935l6.471-6.488 6.464 6.488Z"/><path fill="#E6918C" d="m25.87 26.008-6.464 6.496-6.471-6.496H25.87Z"/><path fill="#EF9E9B" d="m25.87 13.034-6.464 6.496-6.471-6.496H25.87Z"/><path fill="#E6918C" d="M25.87 13.034H12.935l6.471-6.487 6.464 6.487Z"/><path fill="#EFE860" d="m32.333 6.538-6.472 6.487V.051l6.472 6.495v-.008Z"/><path fill="#fff" d="M51.152 26.093V10.916h1.595v15.177h-1.595Zm1.382-3.77-.069-1.955 9.15-9.452h1.833l-6.668 7.027-.904.977-3.342 3.402Zm9.473 3.77-6.515-7.55 1.083-1.174 7.333 8.715h-1.901v.009ZM69.067 26.204c-.853 0-1.586-.137-2.208-.42-.623-.282-1.1-.668-1.433-1.173-.332-.498-.494-1.072-.494-1.723 0-.591.136-1.131.417-1.62.282-.48.742-.874 1.382-1.174.64-.3 1.5-.445 2.575-.445h3.905v1.148H69.35c-1.092 0-1.85.197-2.277.583-.427.386-.64.874-.64 1.457 0 .651.256 1.174.76 1.56.502.385 1.21.582 2.114.582.904 0 1.611-.197 2.234-.6.622-.394 1.083-.968 1.373-1.722l.35 1.062a3.583 3.583 0 0 1-1.502 1.8c-.716.446-1.611.668-2.685.668l-.009.017Zm3.905-.11v-2.52l-.068-.412v-4.207c0-.969-.273-1.714-.81-2.237-.537-.523-1.339-.78-2.404-.78a5.86 5.86 0 0 0-2.09.369 5.365 5.365 0 0 0-1.68.977l-.69-1.149a6.06 6.06 0 0 1 2.072-1.14 8.106 8.106 0 0 1 2.55-.402c1.466 0 2.6.368 3.402 1.097.801.728 1.193 1.842 1.193 3.325v7.07h-1.466l-.009.008ZM78.599 26.093V10.008h1.534v16.085H78.6ZM89.215 26.204c-1.176 0-2.217-.248-3.103-.745a5.37 5.37 0 0 1-2.09-2.057c-.503-.874-.758-1.877-.758-3 0-1.122.238-2.125.724-2.99a5.38 5.38 0 0 1 1.987-2.048c.844-.497 1.79-.746 2.84-.746 1.048 0 2.012.24 2.839.729a5.215 5.215 0 0 1 1.953 2.04c.477.873.716 1.884.716 3.024 0 .077 0 .146-.009.232 0 .077-.008.162-.008.248h-9.857v-1.148h9.038l-.605.454c0-.823-.18-1.56-.529-2.202a3.864 3.864 0 0 0-1.432-1.509c-.606-.36-1.305-.54-2.09-.54-.784 0-1.475.18-2.088.54-.623.36-1.1.866-1.45 1.517-.341.651-.52 1.397-.52 2.237v.24c0 .865.188 1.628.571 2.288.384.66.913 1.174 1.595 1.542.682.369 1.466.549 2.345.549.69 0 1.33-.12 1.927-.369a4.084 4.084 0 0 0 1.543-1.13l.861.993a4.861 4.861 0 0 1-1.884 1.388 6.386 6.386 0 0 1-2.49.48l-.026-.017ZM98.21 12.194a1.111 1.111 0 0 1-1.125-1.106c0-.3.11-.557.324-.77A1.11 1.11 0 0 1 98.21 10c.325 0 .58.103.802.3.213.206.324.454.324.763 0 .308-.102.582-.316.805-.204.214-.477.326-.81.326Zm-.775 13.9v-11.38h1.534v11.38h-1.534ZM107.744 26.204c-1.083 0-2.046-.248-2.899-.736a5.348 5.348 0 0 1-2.021-2.049c-.486-.874-.733-1.885-.733-3.025s.247-2.168.733-3.033a5.246 5.246 0 0 1 2.021-2.031c.861-.489 1.825-.729 2.899-.729.989 0 1.876.223 2.66.669.785.445 1.407 1.105 1.876 1.962.469.857.699 1.911.699 3.154 0 1.242-.23 2.28-.69 3.145-.461.865-1.083 1.525-1.868 1.988-.784.454-1.679.686-2.686.686h.009Zm.111-1.362c.801 0 1.526-.18 2.166-.548a3.961 3.961 0 0 0 1.509-1.56c.367-.669.554-1.448.554-2.331s-.179-1.68-.554-2.34a3.939 3.939 0 0 0-1.509-1.55c-.64-.37-1.365-.55-2.166-.55-.802 0-1.501.18-2.14.55-.64.368-1.134.882-1.51 1.55-.375.669-.562 1.449-.562 2.34 0 .891.187 1.662.562 2.33a4.082 4.082 0 0 0 1.51 1.56c.631.369 1.347.549 2.14.549Zm4.272 1.26v-3.428l.153-2.297-.213-2.296v-8.064h1.535v16.085h-1.475ZM122.486 26.205c-1.092 0-2.072-.249-2.942-.746a5.475 5.475 0 0 1-2.063-2.056c-.504-.874-.759-1.877-.759-3 0-1.122.247-2.142.759-3.016a5.512 5.512 0 0 1 2.046-2.04c.861-.488 1.85-.737 2.959-.737 1.108 0 2.114.249 2.984.737a5.325 5.325 0 0 1 2.046 2.04c.495.865.742 1.877.742 3.016 0 1.14-.247 2.126-.742 3a5.357 5.357 0 0 1-2.063 2.056c-.878.497-1.867.746-2.976.746h.009Zm0-1.363c.818 0 1.543-.18 2.183-.548a3.987 3.987 0 0 0 1.5-1.56c.367-.668.555-1.448.555-2.33 0-.883-.18-1.68-.555-2.34a3.964 3.964 0 0 0-1.5-1.551c-.631-.369-1.356-.549-2.158-.549-.801 0-1.526.18-2.157.549a4.049 4.049 0 0 0-1.509 1.55c-.375.67-.563 1.45-.563 2.34 0 .892.188 1.663.563 2.331a4.072 4.072 0 0 0 1.509 1.56c.631.368 1.347.548 2.14.548h-.008ZM135.882 26.222c-1.125 0-2.2-.18-3.223-.549-1.032-.368-1.825-.84-2.388-1.422l.623-1.234c.529.523 1.245.96 2.149 1.311a7.702 7.702 0 0 0 2.839.531c.998 0 1.722-.12 2.319-.36s1.041-.557 1.313-.968a2.3 2.3 0 0 0 .418-1.345c0-.592-.17-1.072-.503-1.431-.332-.36-.784-.652-1.33-.857a14.325 14.325 0 0 0-1.816-.549 85.057 85.057 0 0 1-1.987-.506 8.06 8.06 0 0 1-1.825-.728 3.862 3.862 0 0 1-1.338-1.2c-.341-.497-.503-1.148-.503-1.962 0-.754.196-1.44.596-2.074.393-.625 1.007-1.131 1.825-1.517.819-.385 1.868-.574 3.147-.574.852 0 1.688.12 2.523.36.836.24 1.552.566 2.158.986l-.537 1.276a6.94 6.94 0 0 0-2.064-.95 7.67 7.67 0 0 0-2.106-.3c-.904 0-1.654.12-2.243.368-.588.248-1.023.574-1.304.985a2.402 2.402 0 0 0-.418 1.397c0 .591.171 1.071.503 1.431.333.36.785.643 1.339.848.554.206 1.159.386 1.825.54.665.163 1.321.335 1.978.523a9.044 9.044 0 0 1 1.816.729c.554.3.998.694 1.339 1.182.341.489.503 1.131.503 1.928 0 .737-.205 1.423-.606 2.048-.4.626-1.014 1.132-1.841 1.517-.828.386-1.885.574-3.181.574v-.008ZM146.865 26.093l-4.272-11.38h1.466l3.88 10.558h-.665l3.99-10.558h1.314l3.947 10.558h-.665l3.948-10.558h1.399l-4.298 11.38h-1.441l-3.794-9.932h.452l-3.82 9.932h-1.441ZM166.475 26.204c-.852 0-1.586-.137-2.208-.42-.623-.282-1.1-.668-1.433-1.173-.332-.498-.494-1.072-.494-1.723 0-.591.136-1.131.418-1.62.281-.48.741-.874 1.381-1.174.639-.3 1.501-.445 2.575-.445h3.905v1.148h-3.862c-1.092 0-1.851.197-2.277.583a1.885 1.885 0 0 0-.639 1.457c0 .651.255 1.174.758 1.56.503.385 1.211.582 2.115.582.904 0 1.612-.197 2.234-.6.622-.394 1.083-.968 1.373-1.722l.349 1.062a3.579 3.579 0 0 1-1.5 1.8c-.717.446-1.612.668-2.686.668l-.009.017Zm3.906-.11v-2.52l-.069-.412v-4.207c0-.969-.273-1.714-.81-2.237-.537-.523-1.338-.78-2.404-.78-.734 0-1.433.12-2.089.369a5.361 5.361 0 0 0-1.68.977l-.691-1.149a6.067 6.067 0 0 1 2.072-1.14 8.106 8.106 0 0 1 2.55-.402c1.466 0 2.6.368 3.402 1.097.801.728 1.194 1.842 1.194 3.325v7.07h-1.467l-.008.008ZM176.119 30.301V14.713h1.466v3.428l-.153 2.28.213 2.296v7.593h-1.535l.009-.009Zm5.849-4.096c-.98 0-1.867-.231-2.652-.686-.793-.454-1.424-1.114-1.884-1.97-.46-.858-.699-1.912-.699-3.154 0-1.243.23-2.297.69-3.154.461-.857 1.083-1.517 1.876-1.962.793-.446 1.68-.669 2.678-.669 1.083 0 2.046.24 2.899.729a5.332 5.332 0 0 1 2.021 2.04c.486.873.733 1.885.733 3.024 0 1.14-.247 2.169-.733 3.034a5.267 5.267 0 0 1-2.021 2.04c-.853.488-1.825.736-2.899.736l-.009-.008Zm-.111-1.363c.802 0 1.527-.18 2.158-.548a4.072 4.072 0 0 0 1.509-1.56c.375-.668.563-1.448.563-2.33 0-.883-.188-1.655-.563-2.323a4.133 4.133 0 0 0-1.509-1.56c-.631-.377-1.356-.565-2.158-.565-.801 0-1.526.188-2.165.565-.64.377-1.143.9-1.51 1.56-.366.668-.554 1.44-.554 2.322 0 .883.188 1.663.554 2.331.367.669.87 1.191 1.51 1.56.639.368 1.364.548 2.165.548Z"/></g><defs><clipPath id="a"><path fill="#fff" d="M0 0h187.622v39H0z"/></clipPath></defs></svg>
