<svg width="796" height="210" viewBox="0 0 796 210" fill="none" xmlns="http://www.w3.org/2000/svg">
<g clip-path="url(#clip0_23_1098)">
<path d="M69.7981 209.012H0.421387L35.123 174.363L69.7981 209.012Z" fill="#6F32FF"/>
<path d="M139.095 0.961426V70.3381L104.447 35.6365L139.095 0.961426Z" fill="#17B581"/>
<path d="M139.068 139.688V209.065L104.42 174.363L139.068 139.688Z" fill="#17B581"/>
<path d="M139.095 70.3116V0.961426L173.743 35.6631L139.095 70.3381V70.3116Z" fill="#17B581"/>
<path d="M69.7449 139.635V70.2584L104.393 104.96L69.7449 139.635Z" fill="#15E99A"/>
<path d="M69.7449 70.285V139.662L35.0964 104.96L69.7449 70.285Z" fill="#15E99A"/>
<path d="M139.122 209.092V139.715L173.77 174.416L139.122 209.092Z" fill="#17B581"/>
<path d="M0.421387 0.908325H69.7981L35.0965 35.5568L0.421387 0.908325Z" fill="#6F32FF"/>
<path d="M208.445 209.012H139.069L173.77 174.363L208.445 209.012Z" fill="#17B581"/>
<path d="M139.069 0.988037H208.445L173.744 35.6365L139.069 0.988037Z" fill="#17B581"/>
<path d="M139.122 70.285H69.7449L104.447 35.6365L139.122 70.285Z" fill="#17B581"/>
<path d="M69.7183 139.635H139.095L104.393 174.284L69.7183 139.635Z" fill="#17B581"/>
<path d="M139.068 139.635H69.7183L104.393 105.013L139.042 139.635H139.068Z" fill="#15E99A"/>
<path d="M139.068 70.285L104.42 104.907L69.7449 70.285H139.095H139.068Z" fill="#15E99A"/>
<path d="M229.596 80.9135V103.1H229.808L247.425 80.9135H258L240.118 103.552L263.314 128.98H251.41L229.622 105.385V128.98H220.323V80.9135H229.622H229.596Z" fill="white"/>
<path d="M342.841 80.9135V121.726H366.17V128.98H333.568V80.9135H342.867H342.841Z" fill="white"/>
<path d="M410.623 80.9134V88.1673H388.835V100.788H409.693V108.042H388.835V121.7H411.102V128.954H379.562V80.8868H410.623V80.9134Z" fill="white"/>
<path d="M436.317 80.9135V128.98H427.018V80.9135H436.317Z" fill="white"/>
<path d="M474.287 80.9135C479.283 80.9135 483.747 81.9231 487.626 83.9691C491.532 86.0151 494.561 88.8847 496.713 92.5781C498.865 96.2714 499.955 100.417 499.955 105.04C499.955 109.663 498.865 113.915 496.713 117.555C494.561 121.195 491.479 124.012 487.466 126.004C483.481 127.997 478.911 129.007 473.729 129.007H454.146V80.94H474.261L474.287 80.9135ZM473.331 121.726C478.459 121.726 482.604 120.185 485.713 117.103C488.822 114.021 490.363 109.982 490.363 104.987C490.363 99.9914 488.795 95.7135 485.66 92.7109C482.524 89.7084 478.326 88.1939 473.012 88.1939H463.446V121.726H473.304H473.331Z" fill="white"/>
<path d="M540.289 80.3022C545.258 80.3022 549.749 81.3385 553.734 83.3845C557.72 85.4304 560.882 88.4064 563.247 92.2592C565.612 96.112 566.781 100.363 566.781 104.96C566.781 109.557 565.638 113.622 563.326 117.475C561.015 121.328 557.853 124.304 553.841 126.429C549.802 128.555 545.285 129.618 540.236 129.618C535.188 129.618 530.724 128.528 526.659 126.376C522.593 124.224 519.405 121.248 517.146 117.475C514.888 113.702 513.745 109.53 513.745 104.96C513.745 100.39 514.888 96.4308 517.146 92.5515C519.405 88.6721 522.54 85.6696 526.552 83.5173C530.538 81.3651 535.135 80.3022 540.316 80.3022H540.289ZM523.337 104.96C523.337 108.149 524.055 111.018 525.516 113.569C526.977 116.12 528.97 118.086 531.548 119.494C534.125 120.903 537.048 121.593 540.289 121.593C545.232 121.593 549.27 120.052 552.459 116.944C555.647 113.835 557.215 109.849 557.215 104.96C557.215 101.772 556.498 98.9019 555.063 96.3511C553.628 93.8003 551.609 91.8075 549.005 90.4258C546.401 89.0175 543.478 88.3267 540.21 88.3267C536.942 88.3267 534.019 89.0175 531.415 90.4523C528.811 91.8872 526.818 93.8269 525.41 96.3777C524.001 98.9019 523.311 101.798 523.311 104.987L523.337 104.96Z" fill="white"/>
<path d="M596.46 80.3022C601.137 80.3022 605.654 81.4714 609.985 83.8096V92.0732C605.016 89.0707 600.579 87.5561 596.726 87.5561C594.388 87.5561 592.554 88.0078 591.252 88.9112C589.924 89.8146 589.26 91.0369 589.26 92.5515C589.26 94.3583 590.482 96.0322 592.953 97.5734C593.644 98.0251 596.301 99.327 600.898 101.426C604.83 103.286 607.673 105.359 609.427 107.617C611.181 109.876 612.031 112.613 612.031 115.801C612.031 119.92 610.543 123.267 607.567 125.792C604.591 128.316 600.738 129.591 596.035 129.591C592.953 129.591 590.322 129.246 588.117 128.582C585.912 127.917 583.414 126.748 580.677 125.101V115.96C585.805 120.238 590.641 122.364 595.185 122.364C597.444 122.364 599.277 121.859 600.685 120.876C602.093 119.893 602.784 118.591 602.784 116.944C602.784 114.712 601.562 112.905 599.144 111.497C597.125 110.407 594.521 109.079 591.332 107.537C587.559 105.81 584.716 103.818 582.856 101.506C580.996 99.2208 580.04 96.5637 580.04 93.5346C580.04 89.4958 581.554 86.2807 584.557 83.8893C587.559 81.4979 591.518 80.3022 596.46 80.3022Z" fill="white"/>
<path d="M630.392 80.9135L642.348 110.567L654.943 80.9135H662.782L675.429 110.673L687.36 80.9135H696.845L677.05 129.591H673.915L658.769 93.9598L643.571 129.591H640.542L620.72 80.9135H630.312H630.392Z" fill="white"/>
<path d="M780.703 80.9135C785.194 80.9135 788.861 82.2154 791.651 84.8194C794.441 87.4233 795.875 90.7713 795.875 94.8898C795.875 99.0083 794.441 102.409 791.598 104.96C788.754 107.511 785.008 108.813 780.358 108.813H771.404V128.98H762.104V80.9135H780.677H780.703ZM778.392 101.559C780.863 101.559 782.803 101.001 784.184 99.8585C785.566 98.716 786.257 97.042 786.257 94.81C786.257 90.3727 783.414 88.1673 777.727 88.1673H771.404V101.559H778.392Z" fill="white"/>
<path d="M299.637 80.9135H290.151L270.329 128.98H280.054L284.704 117.289L287.52 110.221L294.934 91.1964L303.038 110.221L306.067 117.289L311.062 128.98H320.867L299.637 80.9135Z" fill="white"/>
<path d="M727.907 80.9135H718.421L698.599 128.98H708.324L712.974 117.289L715.791 110.221L723.204 91.1964L731.308 110.221L734.337 117.289L739.332 128.98H749.137L727.907 80.9135Z" fill="white"/>
</g>
<defs>
<clipPath id="clip0_23_1098">
<rect width="795.454" height="208.183" fill="white" transform="translate(0.421387 0.908325)"/>
</clipPath>
</defs>
</svg>
