<svg width="576" height="50" viewBox="0 0 576 50" fill="none" xmlns="http://www.w3.org/2000/svg">
<path d="M9.3919 0.913452V23.1002H9.60447L27.221 0.913452H37.7962L19.914 23.5519L43.1104 48.9803H31.2066L9.41848 25.3853V48.9803H0.118652V0.913452H9.41848H9.3919Z" fill="white"/>
<path d="M122.637 0.913452V41.7264H145.966V48.9803H113.364V0.913452H122.664H122.637Z" fill="white"/>
<path d="M190.42 0.913412V8.16728H168.632V20.7885H189.49V28.0423H168.632V41.6998H190.898V48.9537H159.358V0.886841H190.42V0.913412Z" fill="white"/>
<path d="M216.113 0.913452V48.9803H206.813V0.913452H216.113Z" fill="white"/>
<path d="M254.083 0.913452C259.078 0.913452 263.542 1.92315 267.422 3.96911C271.328 6.01507 274.357 8.88473 276.509 12.5781C278.661 16.2714 279.751 20.4165 279.751 25.0399C279.751 29.6632 278.661 33.9146 276.509 37.5548C274.357 41.195 271.275 44.0115 267.262 46.0043C263.277 47.9971 258.707 49.0068 253.525 49.0068H233.942V0.940024H254.057L254.083 0.913452ZM253.127 41.7264C258.255 41.7264 262.4 40.1853 265.509 37.1031C268.617 34.0208 270.159 29.982 270.159 24.9867C270.159 19.9914 268.591 15.7135 265.456 12.7109C262.32 9.70843 258.122 8.19388 252.808 8.19388H243.242V41.7264H253.1H253.127Z" fill="white"/>
<path d="M320.085 0.302246C325.054 0.302246 329.545 1.33852 333.53 3.38448C337.516 5.43044 340.678 8.40639 343.043 12.2592C345.407 16.112 346.577 20.3633 346.577 24.9601C346.577 29.5568 345.434 33.6222 343.122 37.475C340.811 41.3278 337.649 44.3037 333.637 46.4294C329.598 48.5551 325.081 49.6179 320.032 49.6179C314.984 49.6179 310.52 48.5285 306.454 46.3762C302.389 44.224 299.201 41.2481 296.942 37.475C294.684 33.7019 293.541 29.5303 293.541 24.9601C293.541 20.3899 294.684 16.4308 296.942 12.5515C299.201 8.6721 302.336 5.66958 306.348 3.51733C310.334 1.36509 314.931 0.302246 320.112 0.302246H320.085ZM303.133 24.9601C303.133 28.1486 303.851 31.0183 305.312 33.5691C306.773 36.1199 308.766 38.0861 311.344 39.4944C313.921 40.9026 316.844 41.5935 320.085 41.5935C325.028 41.5935 329.066 40.0524 332.255 36.9436C335.443 33.8348 337.011 29.8491 337.011 24.9601C337.011 21.7716 336.294 18.9019 334.859 16.3511C333.424 13.8003 331.405 11.8075 328.801 10.4258C326.197 9.01751 323.274 8.32667 320.006 8.32667C316.737 8.32667 313.815 9.01752 311.211 10.4523C308.607 11.8872 306.614 13.8269 305.206 16.3777C303.797 18.9019 303.107 21.7981 303.107 24.9866L303.133 24.9601Z" fill="white"/>
<path d="M376.257 0.302246C380.933 0.302246 385.45 1.47137 389.781 3.80961V12.0732C384.813 9.07066 380.375 7.55611 376.522 7.55611C374.184 7.55611 372.351 8.00782 371.049 8.91123C369.72 9.81464 369.056 11.0369 369.056 12.5515C369.056 14.3583 370.278 16.0322 372.749 17.5734C373.44 18.0251 376.097 19.327 380.694 21.4261C384.627 23.2861 387.47 25.3586 389.223 27.6172C390.977 29.8757 391.827 32.6125 391.827 35.801C391.827 39.9195 390.339 43.2674 387.363 45.7917C384.387 48.3159 380.535 49.5913 375.832 49.5913C372.749 49.5913 370.119 49.2459 367.913 48.5816C365.708 47.9174 363.21 46.7482 360.474 45.1008V35.9604C365.602 40.2384 370.438 42.364 374.981 42.364C377.24 42.364 379.073 41.8592 380.482 40.8761C381.89 39.8929 382.581 38.591 382.581 36.9436C382.581 34.7116 381.358 32.9048 378.94 31.4965C376.921 30.4071 374.317 29.0786 371.129 27.5375C367.356 25.8103 364.512 23.8175 362.652 21.5059C360.792 19.2208 359.836 16.5637 359.836 13.5346C359.836 9.49579 361.35 6.28071 364.353 3.88932C367.356 1.49794 371.315 0.302246 376.257 0.302246Z" fill="white"/>
<path d="M410.187 0.913452L422.144 30.5666L434.739 0.913452H442.577L455.225 30.6729L467.156 0.913452H476.641L456.846 49.5914H453.711L438.565 13.9598L423.367 49.5914H420.338L400.516 0.913452H410.108H410.187Z" fill="white"/>
<path d="M560.5 0.913452C564.99 0.913452 568.657 2.21543 571.447 4.81938C574.237 7.42333 575.672 10.7713 575.672 14.8898C575.672 19.0083 574.237 22.4093 571.394 24.9601C568.551 27.511 564.804 28.8129 560.154 28.8129H551.2V48.9803H541.9V0.913452H560.473H560.5ZM558.188 21.5591C560.659 21.5591 562.599 21.0011 563.98 19.8585C565.362 18.716 566.053 17.042 566.053 14.81C566.053 10.3727 563.21 8.16732 557.524 8.16732H551.2V21.5591H558.188Z" fill="white"/>
<path d="M79.4327 0.913452H69.9469L50.125 48.9803H59.85L64.4999 37.2891L67.3164 30.2212L74.7297 11.1964L82.8338 30.2212L85.8629 37.2891L90.8582 48.9803H100.663L79.4327 0.913452Z" fill="white"/>
<path d="M507.703 0.913452H498.217L478.396 48.9803H488.12L492.77 37.2891L495.587 30.2212L503 11.1964L511.104 30.2212L514.133 37.2891L519.129 48.9803H528.933L507.703 0.913452Z" fill="white"/>
</svg>
