<svg width="180" height="180" viewBox="0 0 180 180" fill="none" xmlns="http://www.w3.org/2000/svg">
<rect width="180" height="180" rx="90" fill="white"/>
<path d="M90 0C139.706 0 180 40.2944 180 90C180 139.706 139.706 180 90 180C40.2944 180 0 139.706 0 90C0 40.2944 40.2944 0 90 0ZM101.859 29.2158C101.519 29.2609 101.205 29.4243 100.973 29.6768L43.9883 91.5664C43.7621 91.812 43.6126 92.1189 43.5576 92.4482C43.5028 92.7773 43.5448 93.1153 43.6787 93.4209C43.8128 93.7266 44.0331 93.9873 44.3125 94.1699C44.592 94.3525 44.9191 94.4492 45.2529 94.4492H90.8848L68.3975 146.801C68.2859 147.061 68.2691 147.352 68.3516 147.622C68.4341 147.892 68.6102 148.125 68.8477 148.278C69.0851 148.432 69.3692 148.495 69.6494 148.459C69.9298 148.423 70.1891 148.289 70.3799 148.08L133.744 78.7754C134.002 78.4934 134.172 78.1419 134.232 77.7646C134.293 77.3874 134.243 77.0001 134.087 76.6514C133.931 76.3025 133.675 76.0067 133.354 75.8008C133.032 75.5949 132.656 75.4878 132.274 75.4922L89.4912 75.9971C89.0447 76.0023 88.6033 75.8973 88.207 75.6914C87.8109 75.4855 87.472 75.1847 87.2197 74.8164C86.9674 74.448 86.8095 74.0229 86.7607 73.5791C86.712 73.1355 86.7733 72.6867 86.9395 72.2725L103.413 31.2158C103.541 30.8974 103.553 30.5442 103.447 30.2178C103.342 29.8916 103.125 29.6128 102.835 29.4297C102.545 29.2466 102.199 29.1708 101.859 29.2158Z" fill="#FFBA00"/>
</svg>
