<svg width="426" height="128" viewBox="0 0 426 128" fill="none" xmlns="http://www.w3.org/2000/svg">
<path fill-rule="evenodd" clip-rule="evenodd" d="M39.6804 24.6556L40.8361 0H26.3982L27.554 24.6559L4.46155 15.9375L0 29.6687L23.8069 36.1888L8.37966 55.4563L20.0601 63.9427L33.6181 43.3153L47.1756 63.9419L58.8561 55.4555L43.429 36.1882L67.2334 29.6688L62.7719 15.9375L39.6804 24.6556ZM33.6171 33.0014L33.6169 33.0009H33.6165L33.6161 33.0022L33.6171 33.0014Z" fill="white"/>
<path d="M325.234 34.9285V42.454H326.264C327.55 39.8383 329.415 37.8872 331.859 36.6008C334.304 35.3144 337.584 34.6712 341.7 34.6712H351.091V50.1081H341.636C338.077 50.1081 335.161 50.7084 332.889 51.909C330.616 53.0668 328.901 54.9106 327.743 57.4405C326.628 59.9705 326.071 63.2079 326.071 67.1529V102.272H307.096V34.9285H325.234Z" fill="white"/>
<path d="M237.72 54.2899C238.191 50.0876 239.714 46.4214 242.286 43.2911C244.902 40.118 248.461 37.6739 252.964 35.9587C257.509 34.2435 262.847 33.3858 268.979 33.3858C275.283 33.3858 280.664 34.3507 285.124 36.2803C289.583 38.2099 293.014 41.1686 295.415 45.1564C297.816 49.1014 299.017 54.0969 299.017 60.143V102.273H281.522V95.326H280.493C279.078 97.6416 276.719 99.5712 273.417 101.115C270.116 102.659 265.592 103.43 259.846 103.43C254.7 103.43 250.198 102.616 246.339 100.986C242.479 99.3139 239.478 96.934 237.334 93.8467C235.233 90.7164 234.182 87.0288 234.182 82.7836C234.182 76.3945 236.348 71.4633 240.678 67.99C245.052 64.5168 250.862 62.3513 258.109 61.4937L280.878 58.6636V57.4415C280.878 53.8396 279.871 51.2025 277.855 49.5302C275.84 47.815 272.796 46.9574 268.722 46.9574C264.648 46.9574 261.475 47.7507 259.203 49.3372C256.93 50.8809 255.644 53.175 255.343 56.2195H237.72V54.2899ZM253.028 81.6902C253.028 84.1344 253.993 86.064 255.922 87.479C257.852 88.894 260.553 89.6016 264.027 89.6016C267.328 89.6016 270.244 89.0227 272.774 87.8649C275.304 86.7072 277.277 84.9705 278.692 82.655C280.15 80.3395 280.878 77.5094 280.878 74.1648V71.399L262.419 73.8432C259.503 74.2291 257.209 75.0652 255.536 76.3516C253.864 77.638 253.028 79.4176 253.028 81.6902Z" fill="white"/>
<path d="M159.351 34.9288H177.811V41.4895H178.84C181.155 38.7452 184.028 36.7512 187.459 35.5077C190.889 34.2213 194.813 33.5781 199.229 33.5781C205.018 33.5781 210.228 34.886 214.859 37.5016C219.49 40.0744 223.156 43.998 225.858 49.2722C228.559 54.5036 229.91 60.957 229.91 68.6325C229.91 76.3081 228.559 82.7829 225.858 88.0572C223.156 93.2885 219.49 97.1906 214.859 99.7634C210.228 102.336 205.018 103.623 199.229 103.623C194.941 103.623 191.125 103.044 187.78 101.886C184.436 100.728 181.606 98.8629 179.29 96.2901H178.325V128H159.351V34.9288ZM177.489 68.6325C177.489 72.9634 178.175 76.6725 179.547 79.7599C180.919 82.8044 182.849 85.1199 185.336 86.7065C187.866 88.2501 190.803 89.022 194.148 89.022C197.493 89.022 200.408 88.2501 202.896 86.7065C205.425 85.1199 207.376 82.8044 208.749 79.7599C210.121 76.6725 210.807 72.9634 210.807 68.6325C210.807 64.2588 210.121 60.5496 208.749 57.5052C207.376 54.4607 205.425 52.1452 202.896 50.5586C200.408 48.972 197.493 48.1788 194.148 48.1788C190.803 48.1788 187.866 48.972 185.336 50.5586C182.849 52.1452 180.919 54.4607 179.547 57.5052C178.175 60.5496 177.489 64.2588 177.489 68.6325Z" fill="white"/>
<path d="M75.3717 34.9289C75.3717 29.5689 76.7439 24.8735 79.4882 20.8428C82.2754 16.8121 86.3919 13.6818 91.8376 11.4521C97.3263 9.22229 103.994 8.10741 111.841 8.10741C119.774 8.10741 126.549 9.26517 132.166 11.5807C137.784 13.8962 142.136 17.2194 145.223 21.5503C148.311 25.8812 150.026 31.0268 150.369 36.9871V38.9167H131.973C131.802 35.1433 130.837 32.0988 129.079 29.7833C127.364 27.4677 125.048 25.8169 122.132 24.8306C119.259 23.8015 115.893 23.2869 112.034 23.2869C108.389 23.2869 105.259 23.7157 102.643 24.5733C100.028 25.4309 98.0123 26.6959 96.5973 28.3682C95.2251 29.9977 94.5391 31.9916 94.5391 34.35C94.5391 36.7084 95.1608 38.6594 96.4043 40.2031C97.6479 41.7468 99.4488 42.9903 101.807 43.9337C104.166 44.8341 107.146 45.5417 110.748 46.0562L121.039 47.5356C127.771 48.4789 133.367 50.0441 137.826 52.2309C142.329 54.4178 145.738 57.398 148.053 61.1714C150.412 64.9449 151.591 69.5974 151.591 75.1289C151.591 80.8748 150.154 85.9132 147.281 90.2441C144.409 94.5321 140.142 97.8767 134.482 100.278C128.865 102.636 122.004 103.816 113.899 103.816C105.752 103.816 98.6555 102.615 92.6095 100.214C86.5634 97.7695 81.868 94.3391 78.5234 89.9225C75.2216 85.463 73.4421 80.253 73.1848 74.2927V72.3631H91.5803C92.052 77.9804 94.2389 82.0969 98.141 84.7126C102.086 87.3282 107.232 88.6361 113.578 88.6361C117.566 88.6361 120.975 88.1644 123.805 87.221C126.635 86.2348 128.779 84.7983 130.237 82.9116C131.695 81.0249 132.424 78.7522 132.424 76.0937C132.424 73.5209 131.802 71.4198 130.558 69.7903C129.315 68.1609 127.492 66.8959 125.091 65.9954C122.69 65.095 119.56 64.366 115.7 63.8085L105.409 62.3292C98.8914 61.3858 93.4027 59.7778 88.9432 57.5052C84.4837 55.1897 81.0962 52.1666 78.7807 48.4361C76.508 44.6626 75.3717 40.1602 75.3717 34.9289Z" fill="white"/>
<path d="M403.563 34.9294L377.385 59.6926H376.356V9.6516H357.381V102.272H376.356V75.3223H377.385L403.113 102.272H425.496V100.343L392.307 67.0251L425.303 36.859V34.9294H403.563Z" fill="white"/>
</svg>
