<svg width="1049" height="648" viewBox="0 0 1049 648" fill="none" xmlns="http://www.w3.org/2000/svg">
<path d="M455.645 411.865H318.339L387.018 343.29L455.645 411.865Z" fill="#6F32FF"/>
<path d="M318.339 0H455.645L386.966 68.574L318.339 0Z" fill="#6F32FF"/>
<path d="M455.487 274.559H592.794L730.047 411.866H592.74L455.487 274.559Z" fill="#17B581"/>
<path d="M455.488 274.559L386.966 205.933L455.54 137.306L592.794 137.411L524.115 206.038L592.795 274.559H455.488Z" fill="#15E99A"/>
<path d="M592.818 0.104797H730.125L592.871 137.411H455.565L592.818 0.104797Z" fill="#17B581"/>
<path d="M18.2371 552.068V595.701H18.6551L53.3003 552.068H74.0979L38.9301 596.59L84.549 646.598H61.1386L18.2893 600.195V646.598H0V552.068H18.2893H18.2371Z" fill="white"/>
<path d="M155.952 552.068H137.297L98.3142 646.598H117.44L126.584 623.606L132.123 609.706L146.703 572.291L162.64 609.706L168.597 623.606L178.421 646.598H197.704L155.952 552.068Z" fill="white"/>
<path d="M233.868 552.068V632.332H279.748V646.598H215.631V552.068H233.92H233.868Z" fill="white"/>
<path d="M358.761 552.068V566.334H315.912V591.155H356.932V605.421H315.912V632.28H359.702V646.545H297.675V552.016H358.761V552.068Z" fill="white"/>
<path d="M400.078 552.068V646.598H381.789V552.068H400.078Z" fill="white"/>
<path d="M461.775 552.068C471.599 552.068 480.378 554.054 488.007 558.077C495.689 562.101 501.646 567.745 505.878 575.008C510.111 582.272 512.254 590.423 512.254 599.516C512.254 608.608 510.111 616.969 505.878 624.128C501.646 631.287 495.584 636.826 487.694 640.745C479.855 644.664 470.867 646.65 460.678 646.65H422.166V552.12H461.723L461.775 552.068ZM459.894 632.332C469.979 632.332 478.131 629.301 484.245 623.24C490.359 617.178 493.389 609.235 493.389 599.411C493.389 589.587 490.306 581.174 484.14 575.269C477.974 569.365 469.718 566.386 459.267 566.386H440.455V632.332H459.842H459.894Z" fill="white"/>
<path d="M578.223 550.866C587.994 550.866 596.826 552.904 604.664 556.927C612.502 560.951 618.721 566.804 623.371 574.381C628.022 581.958 630.321 590.319 630.321 599.359C630.321 608.399 628.074 616.394 623.528 623.971C618.982 631.548 612.763 637.401 604.873 641.581C596.93 645.761 588.047 647.852 578.118 647.852C568.19 647.852 559.411 645.709 551.416 641.476C543.421 637.244 537.15 631.391 532.708 623.971C528.267 616.551 526.02 608.347 526.02 599.359C526.02 590.371 528.267 582.585 532.708 574.956C537.15 567.326 543.316 561.421 551.207 557.189C559.045 552.956 568.085 550.866 578.275 550.866H578.223ZM544.884 599.359C544.884 605.629 546.295 611.273 549.169 616.289C552.043 621.306 555.962 625.173 561.031 627.942C566.1 630.712 571.848 632.07 578.223 632.07C587.942 632.07 595.885 629.04 602.156 622.926C608.426 616.812 611.509 608.974 611.509 599.359C611.509 593.088 610.098 587.445 607.277 582.428C604.455 577.412 600.484 573.492 595.363 570.775C590.241 568.006 584.493 566.647 578.066 566.647C571.639 566.647 565.89 568.006 560.769 570.827C555.648 573.649 551.729 577.464 548.96 582.48C546.19 587.445 544.832 593.14 544.832 599.411L544.884 599.359Z" fill="white"/>
<path d="M676.381 550.866C685.578 550.866 694.461 553.165 702.979 557.764V574.015C693.207 568.11 684.481 565.132 676.904 565.132C672.305 565.132 668.7 566.02 666.139 567.797C663.526 569.573 662.22 571.977 662.22 574.956C662.22 578.509 664.624 581.801 669.483 584.832C670.842 585.72 676.068 588.281 685.108 592.409C692.842 596.067 698.433 600.143 701.882 604.584C705.331 609.026 707.003 614.408 707.003 620.679C707.003 628.778 704.076 635.363 698.224 640.327C692.371 645.291 684.794 647.799 675.545 647.799C669.483 647.799 664.31 647.12 659.973 645.814C655.636 644.507 650.724 642.208 645.342 638.968V620.992C655.427 629.405 664.937 633.586 673.873 633.586C678.315 633.586 681.92 632.593 684.69 630.66C687.459 628.726 688.818 626.166 688.818 622.926C688.818 618.536 686.414 614.983 681.659 612.213C677.688 610.071 672.567 607.458 666.296 604.427C658.876 601.031 653.284 597.112 649.626 592.566C645.969 588.072 644.087 582.846 644.087 576.889C644.087 568.946 647.066 562.623 652.971 557.92C658.876 553.217 666.662 550.866 676.381 550.866Z" fill="white"/>
<path d="M739.79 552.068L763.305 610.385L788.074 552.068H803.489L828.363 610.594L851.825 552.068H870.481L831.55 647.8H825.384L795.599 577.725L765.709 647.8H759.752L720.769 552.068H739.633H739.79Z" fill="white"/>
<path d="M1018.63 552.068C1027.46 552.068 1034.67 554.629 1040.16 559.75C1045.64 564.871 1048.46 571.455 1048.46 579.554C1048.46 587.654 1045.64 594.343 1040.05 599.359C1034.46 604.376 1027.09 606.936 1017.95 606.936H1000.34V646.598H982.048V552.068H1018.57H1018.63ZM1014.08 592.67C1018.94 592.67 1022.75 591.573 1025.47 589.326C1028.19 587.079 1029.55 583.787 1029.55 579.398C1029.55 570.671 1023.96 566.334 1012.77 566.334H1000.34V592.67H1014.08Z" fill="white"/>
<path d="M922.9 552.068H904.245L865.262 646.598H884.388L893.532 623.606L899.071 609.706L913.65 572.291L929.588 609.706C929.588 609.706 933.221 618.176 935.545 623.606C939.388 632.582 945.369 646.598 945.369 646.598H964.652L922.9 552.068Z" fill="white"/>
</svg>
