<svg width="831" height="208" viewBox="0 0 831 208" fill="none" xmlns="http://www.w3.org/2000/svg">
<g clip-path="url(#clip0_2288_2)">
<path d="M69.342 208H0L34.6843 173.368L69.342 208Z" fill="#6F32FF"/>
<path d="M0 0H69.342L34.6578 34.6311L0 0Z" fill="#6F32FF"/>
<path d="M69.2625 138.658H138.605L207.92 208H138.578L69.2625 138.658Z" fill="#17B581"/>
<path d="M69.2626 138.658L34.658 104L69.2891 69.342L138.605 69.3951L103.92 104.053L138.605 138.658H69.2626Z" fill="#15E99A"/>
<path d="M138.617 0.0529785H207.96L138.644 69.3953H69.3018L138.617 0.0529785Z" fill="#17B581"/>
<path d="M238.443 76.6909V101.773H238.683L258.598 76.6909H270.554L250.338 102.283L276.561 131.03H263.104L238.473 104.356V131.03H227.959V76.6909H238.473H238.443Z" fill="white"/>
<path d="M317.606 76.6909H306.883L284.474 131.03H295.468L300.725 117.813L303.909 109.823L312.29 88.3157L321.451 109.823L324.876 117.813L330.523 131.03H341.607L317.606 76.6909Z" fill="white"/>
<path d="M362.395 76.6909V122.83H388.769V131.03H351.912V76.6909H362.425H362.395Z" fill="white"/>
<path d="M434.189 76.6909V84.8913H409.557V99.1595H433.137V107.36H409.557V122.8H434.729V131H399.074V76.6609H434.189V76.6909Z" fill="white"/>
<path d="M457.939 76.6909V131.03H447.426V76.6909H457.939Z" fill="white"/>
<path d="M493.404 76.6909C499.051 76.6909 504.098 77.8324 508.483 80.1453C512.899 82.4582 516.323 85.7024 518.756 89.8777C521.19 94.053 522.421 98.7389 522.421 103.966C522.421 109.192 521.19 113.998 518.756 118.114C516.323 122.229 512.839 125.413 508.303 127.666C503.797 129.919 498.631 131.06 492.773 131.06H470.635V76.721H493.374L493.404 76.6909ZM492.323 122.83C498.12 122.83 502.806 121.087 506.321 117.603C509.835 114.118 511.577 109.553 511.577 103.905C511.577 98.2583 509.805 93.4222 506.261 90.0279C502.716 86.6335 497.97 84.9214 491.962 84.9214H481.149V122.83H492.293H492.323Z" fill="white"/>
<path d="M560.343 76C565.96 76 571.036 77.1715 575.542 79.4844C580.048 81.7974 583.622 85.1616 586.296 89.5172C588.969 93.8727 590.291 98.6788 590.291 103.875C590.291 109.072 588.999 113.668 586.386 118.023C583.772 122.379 580.198 125.743 575.662 128.146C571.096 130.549 565.99 131.751 560.283 131.751C554.575 131.751 549.529 130.519 544.933 128.086C540.337 125.653 536.733 122.289 534.179 118.023C531.626 113.758 530.334 109.042 530.334 103.875C530.334 98.7089 531.626 94.2332 534.179 89.8476C536.733 85.462 540.277 82.0677 544.813 79.6346C549.319 77.2015 554.515 76 560.373 76H560.343ZM541.178 103.875C541.178 107.48 541.989 110.724 543.641 113.608C545.293 116.491 547.546 118.714 550.46 120.306C553.374 121.898 556.678 122.679 560.343 122.679C565.93 122.679 570.495 120.937 574.1 117.423C577.705 113.908 579.477 109.402 579.477 103.875C579.477 100.271 578.666 97.0267 577.044 94.1431C575.422 91.2594 573.139 89.0065 570.195 87.4445C567.251 85.8525 563.947 85.0715 560.252 85.0715C556.558 85.0715 553.254 85.8525 550.31 87.4746C547.366 89.0967 545.113 91.2894 543.521 94.1731C541.929 97.0267 541.148 100.301 541.148 103.905L541.178 103.875Z" fill="white"/>
<path d="M616.768 76C622.054 76 627.161 77.3217 632.057 79.965V89.3069C626.44 85.9126 621.424 84.2004 617.068 84.2004C614.425 84.2004 612.352 84.7111 610.88 85.7324C609.378 86.7537 608.627 88.1354 608.627 89.8476C608.627 91.8902 610.009 93.7826 612.803 95.5248C613.584 96.0355 616.587 97.5073 621.784 99.8804C626.23 101.983 629.444 104.326 631.426 106.879C633.409 109.432 634.37 112.526 634.37 116.131C634.37 120.787 632.688 124.572 629.324 127.425C625.959 130.279 621.604 131.721 616.287 131.721C612.803 131.721 609.829 131.33 607.336 130.579C604.843 129.828 602.019 128.507 598.925 126.644V116.311C604.722 121.147 610.189 123.55 615.326 123.55C617.879 123.55 619.952 122.98 621.544 121.868C623.136 120.757 623.917 119.285 623.917 117.423C623.917 114.899 622.535 112.857 619.802 111.265C617.519 110.033 614.575 108.531 610.97 106.789C606.705 104.837 603.491 102.584 601.388 99.9705C599.285 97.3872 598.204 94.3834 598.204 90.959C598.204 86.3932 599.916 82.7586 603.311 80.0552C606.705 77.3517 611.181 76 616.768 76Z" fill="white"/>
<path d="M653.218 76.6909L666.735 110.214L680.973 76.6909H689.834L704.132 110.334L717.619 76.6909H728.343L705.965 131.721H702.42L685.298 91.4397L668.117 131.721H664.692L642.284 76.6909H653.127H653.218Z" fill="white"/>
<path d="M811.502 76.6909C816.579 76.6909 820.724 78.1628 823.878 81.1065C827.032 84.0503 828.654 87.8351 828.654 92.491C828.654 97.1469 827.032 100.992 823.818 103.875C820.604 106.759 816.368 108.231 811.112 108.231H800.989V131.03H790.476V76.6909H811.472H811.502ZM808.889 100.031C811.683 100.031 813.875 99.3998 815.437 98.1081C816.999 96.8165 817.78 94.9241 817.78 92.4009C817.78 87.3845 814.566 84.8913 808.138 84.8913H800.989V100.031H808.889Z" fill="white"/>
<path d="M756.475 76.6909H745.751L723.343 131.03H734.337L739.594 117.813L742.778 109.823L751.158 88.3157L760.32 109.823C760.32 109.823 762.408 114.692 763.744 117.813C765.953 122.973 769.392 131.03 769.392 131.03H780.476L756.475 76.6909Z" fill="white"/>
</g>
<defs>
<clipPath id="clip0_2288_2">
<rect width="831" height="208" fill="white"/>
</clipPath>
</defs>
</svg>
